<?xml version="1.0" encoding="UTF-8" standalone="no"?>
<svg
   width="496"
   height="496"
   version="1"
   id="svg6"
   sodipodi:docname="co.uk.cappsy.CosmicLogoMenuSettings.svg"
   inkscape:version="1.4.2 (ebf0e940d0, 2025-05-08)"
   xmlns:inkscape="http://www.inkscape.org/namespaces/inkscape"
   xmlns:sodipodi="http://sodipodi.sourceforge.net/DTD/sodipodi-0.dtd"
   xmlns="http://www.w3.org/2000/svg"
   xmlns:svg="http://www.w3.org/2000/svg"
   xmlns:rdf="http://www.w3.org/1999/02/22-rdf-syntax-ns#"
   xmlns:cc="http://creativecommons.org/ns#"
   xmlns:dc="http://purl.org/dc/elements/1.1/">
  <sodipodi:namedview
     id="namedview1"
     pagecolor="#ffffff"
     bordercolor="#000000"
     borderopacity="0.25"
     inkscape:showpageshadow="2"
     inkscape:pageopacity="0.0"
     inkscape:pagecheckerboard="0"
     inkscape:deskcolor="#d1d1d1"
     inkscape:zoom="1.4175907"
     inkscape:cx="245.13422"
     inkscape:cy="261.00622"
     inkscape:window-width="1904"
     inkscape:window-height="995"
     inkscape:window-x="20"
     inkscape:window-y="20"
     inkscape:window-maximized="0"
     inkscape:current-layer="svg6" />
  <metadata
     id="metadata12">
    <rdf:RDF>
      <cc:Work
         rdf:about="">
        <dc:format>image/svg+xml</dc:format>
        <dc:type
           rdf:resource="http://purl.org/dc/dcmitype/StillImage" />
      </cc:Work>
    </rdf:RDF>
  </metadata>
  <defs
     id="defs10" />
  <path
     id="circle2-5"
     d="M 248.06491,3.543497 A 245.38458,245.38578 0 0 0 2.6937594,248.9162 245.38458,245.38578 0 0 0 248.06491,494.28925 245.38458,245.38578 0 0 0 493.43951,248.9162 245.38458,245.38578 0 0 0 248.06491,3.543497 Z m -54.45702,61.376614 c 21.91828,-0.488223 31.10504,4.366142 43.85029,12.154644 19.3706,12.169427 33.10949,31.144715 38.20828,53.050015 5.09536,21.90533 3.56537,38.99994 -2.54424,51.1697 v 0.93863 c -12.23641,24.82604 -32.62812,44.79155 -61.17518,54.52743 l 24.51064,60.83956 c 4.58651,11.19608 8.67104,22.86664 5.10223,33.57587 -3.5688,10.70924 -19.9035,14.1677 -31.62764,2.4858 C 187.50174,310.78275 112.05818,166.68704 106.45054,155.97781 100.8429,145.26858 94.698919,136.46855 94.698919,125.75933 95.214647,109.69548 121.23807,93.139288 133.98333,84.863939 146.72858,76.5886 171.69307,65.406611 193.61478,64.919764 Z m -21.55725,44.521639 c -13.70794,2.41703 -5.53888,32.17548 -2.40672,40.69425 3.56881,9.73554 13.26786,30.13563 23.97429,40.35835 2.54424,2.43423 5.06442,4.4153 8.12437,4.90182 3.05996,0.48821 9.20395,-2.41705 11.75164,-6.31216 2.54424,-3.89408 3.09434,-6.84987 3.09434,-10.74429 a 65.251047,62.308329 0 0 0 -1.06583,-23.36895 c -4.58996,-15.09016 -14.25117,-29.68248 -26.99643,-39.41802 -2.54423,-1.946 -5.63171,-4.3988 -9.20052,-5.37214 -2.92244,-0.91112 -5.29133,-1.08303 -7.25108,-0.73921 z m 198.70157,17.32531 a 45.993002,48.02967 0 0 1 24.98167,12.82612 c 6.13023,5.87034 6.67691,12.27497 4.6312,20.27974 -2.02851,8.0051 -9.2177,25.06225 -14.8391,37.33653 l -14.30273,28.27076 c -27.59812,51.23192 -33.22982,56.58792 -40.89692,53.38594 -9.19708,-3.73556 -6.13367,-54.94309 2.54424,-117.38142 2.54424,-17.07743 6.68378,-25.61338 11.28403,-29.88256 4.59683,-4.26954 18.41479,-6.43592 26.59073,-4.83511 z m -48.14799,184.13052 c 13.54291,-3.73488 19.65597,9.58118 16.85385,19.54123 -0.92829,3.73488 -3.30063,7.05754 -7.04821,9.13248 -3.73728,2.07323 -12.59399,2.05604 -17.73059,-1.67783 -5.13318,-3.73489 -6.0993,-9.92773 -4.69998,-14.90759 1.40964,-4.97986 6.08898,-10.4273 12.62493,-12.08725 z M 145.19173,371.60272 H 351.0103 c 10.96086,0 19.74191,6.88152 19.74191,15.37793 0,8.49643 -8.78105,15.31055 -19.74191,15.31055 H 145.19173 c -10.96086,0 -19.81068,-6.81412 -19.81068,-15.31055 0,-8.49641 8.84982,-15.37793 19.81068,-15.37793 z"
     style="fill:#48b9c7;stroke-width:30.6731472;fill-opacity:1" />
  <path
     d="m 363.75585,495.19348 v -31.09665 c 0,-34.3478 -27.84549,-62.1933 -62.19329,-62.1933 h -15.54833 c -8.58734,0 -15.54832,-6.96098 -15.54832,-15.54832 v -77.74162 c 0,-17.17422 -13.92197,-31.09666 -31.09665,-31.09666 v 0 c -17.17468,0 -31.09665,13.92244 -31.09665,31.09666 V 448.5485 l -37.31598,-49.75463 c -5.87276,-7.83014 -15.08949,-12.43866 -24.87732,-12.43866 h -6.74501 c -13.449,0 -24.35164,10.90248 -24.35164,24.35178 v 0 c 0,4.41417 1.19956,8.74438 3.47023,12.52884 l 43.17475,71.95765"
     stroke="#000000"
     stroke-linecap="round"
     stroke-linejoin="round"
     stroke-width="31.0967"
     id="path1"
     style="fill:#ffffff;fill-opacity:1" />
  <path
     d="M 239.36926,230.87196 V 215.32364"
     stroke="#000000"
     stroke-linecap="round"
     stroke-linejoin="round"
     stroke-width="31.0967"
     id="path2"
     style="fill:#ffffff;fill-opacity:1;stroke:#ff0000;stroke-opacity:1" />
  <path
     d="m 332.65921,324.16191 h 15.54832"
     stroke="#000000"
     stroke-linecap="round"
     stroke-linejoin="round"
     stroke-width="31.0967"
     id="path3-6"
     style="fill:#ffffff;fill-opacity:1;stroke:#ff0000;stroke-opacity:1" />
  <path
     d="m 130.53099,324.16191 h 15.54832"
     stroke="#000000"
     stroke-linecap="round"
     stroke-linejoin="round"
     stroke-width="31.0967"
     id="path4"
     style="fill:#ffffff;fill-opacity:1;stroke:#ff0000;stroke-opacity:1" />
  <path
     d="M 166.966,251.75476 155.97162,240.76054"
     stroke="#000000"
     stroke-linecap="round"
     stroke-linejoin="round"
     stroke-width="31.0967"
     id="path5-7"
     style="fill:#ffffff;fill-opacity:1;stroke:#ff0000;stroke-opacity:1" />
  <path
     d="m 311.77314,251.75476 10.99422,-10.99422"
     stroke="#000000"
     stroke-linecap="round"
     stroke-linejoin="round"
     stroke-width="31.0967"
     id="path6"
     style="fill:#ffffff;fill-opacity:1;stroke:#ff0000;stroke-opacity:1" />
</svg>
